<svg width="424" height="424" viewBox="0 0 424 424" fill="none" xmlns="http://www.w3.org/2000/svg">
<path d="M176.26 246.97L246.97 176.26L387.855 317.144C407.381 336.67 407.381 368.329 387.855 387.855V387.855C368.329 407.381 336.67 407.381 317.144 387.855L176.26 246.97Z" fill="#FF3333"/>
<path d="M35.3554 106.066C15.8291 86.5398 15.8291 54.8816 35.3553 35.3554V35.3554C54.8816 15.8291 86.5398 15.8291 106.066 35.3554L246.951 176.24L176.24 246.951L35.3554 106.066Z" fill="#FF3333"/>
<rect x="352.843" y="70" width="100" height="400" rx="50" transform="rotate(45 352.843 70)" fill="#FF3333"/>
<path d="M316.777 246.919L352.132 211.563C352.132 211.563 333.027 231.225 333.027 246.919C333.027 262.613 352.132 282.274 352.132 282.274L316.777 246.919Z" fill="#FF3333"/>
<path d="M176.711 247.355L141.355 282.711C141.355 282.711 160.461 263.05 160.461 247.355C160.461 231.661 141.355 212 141.355 212L176.711 247.355Z" fill="#FF3333"/>
<path d="M247.355 176.711L212 141.355C212 141.355 231.661 160.461 247.355 160.461C263.049 160.461 282.711 141.355 282.711 141.355L247.355 176.711Z" fill="#FF3333"/>
<path d="M247.132 316.777L282.487 352.132C282.487 352.132 262.826 333.027 247.132 333.027C231.438 333.027 211.777 352.132 211.777 352.132L247.132 316.777Z" fill="#FF3333"/>
</svg>
